<?xml version="1.0" encoding="UTF-8"?>
<svg width="63px" height="63px" viewBox="0 0 63 63" version="1.1" xmlns="http://www.w3.org/2000/svg" xmlns:xlink="http://www.w3.org/1999/xlink">
    <!-- Generator: Sketch 48 (47235) - http://www.bohemiancoding.com/sketch -->
    <title>scroll-top</title>
    <desc>Created with Sketch.</desc>
    <defs></defs>
    <g id="Page-1" stroke="none" stroke-width="1" fill="none" fill-rule="evenodd">
        <g id="scroll-top" transform="translate(1.000000, 1.000000)">
            <circle id="Oval-2" stroke-opacity="0.2" stroke="#000000" fill-opacity="0.8" fill="#FFFFFF" cx="30.5" cy="30.5" r="30.5"></circle>
            <g id="Page-1-Copy-2" transform="translate(20.000000, 16.000000)" fill="#999999">
                <g id="Group" transform="translate(10.500000, 14.500000) scale(1, -1) translate(-10.500000, -14.500000) ">
                    <path d="M9.97187002,0 C9.35368821,4.75982889e-15 8.88096093,0.472727273 8.88096093,1.09090909 L8.88096093,25.1636364 L1.79005184,19.0545455 C1.31732457,18.6545455 0.626415478,18.7272727 0.262779114,19.1636364 C-0.137220886,19.6363636 -0.0644936129,20.3272727 0.371870023,20.6909091 L9.28096093,28.3272727 C9.49914275,28.5090909 9.75368821,28.5818182 10.0082337,28.5818182 C10.2627791,28.5818182 10.5173246,28.5090909 10.7355064,28.3272727 L19.6445973,20.6909091 C20.1173246,20.2909091 20.1536882,19.6 19.7536882,19.1636364 C19.3536882,18.6909091 18.6627791,18.6545455 18.2264155,19.0545455 L11.0627791,25.1636364 L11.0627791,1.09090909 C11.0627791,0.485811838 10.6098517,0.0200768534 10.0109251,0.000632253965 C9.99797399,0.000211785792 9.98495459,10 9.97187002,10" id="Fill-3"></path>
                </g>
            </g>
        </g>
    </g>
</svg>